<svg xmlns="http://www.w3.org/2000/svg" viewBox="0 0 400 400">
  <defs>
    <linearGradient id="bg" x1="0" y1="0" x2="1" y2="1">
      <stop offset="0" stop-color="#f2f2f0"/>
      <stop offset="1" stop-color="#ffffff"/>
    </linearGradient>
    <linearGradient id="card1" x1="0" y1="0" x2="1" y2="1">
      <stop offset="0" stop-color="#3a3d44"/>
      <stop offset="1" stop-color="#17181c"/>
    </linearGradient>
    <radialGradient id="blob1" cx="0.5" cy="0.5" r="0.5">
      <stop offset="0" stop-color="#c9cbd1" stop-opacity="0.7"/>
      <stop offset="1" stop-color="#c9cbd1" stop-opacity="0"/>
    </radialGradient>
    <radialGradient id="blob2" cx="0.5" cy="0.5" r="0.5">
      <stop offset="0" stop-color="#3a3d44" stop-opacity="0.18"/>
      <stop offset="1" stop-color="#3a3d44" stop-opacity="0"/>
    </radialGradient>
  </defs>

  <rect width="400" height="400" fill="url(#bg)"/>

  <!-- soft ambient blobs -->
  <circle cx="90" cy="330" r="150" fill="url(#blob1)"/>
  <circle cx="330" cy="70" r="170" fill="url(#blob2)"/>

  <!-- oversized bracket watermark -->
  <text x="200" y="255" font-family="Arial" font-size="230" font-weight="bold" fill="#3a3d44" opacity="0.07" text-anchor="middle">&lt;/&gt;</text>

  <!-- constellation connecting lines -->
  <g stroke="#3a3d44" stroke-width="1.4" opacity="0.35">
    <line x1="70" y1="90" x2="180" y2="150"/>
    <line x1="180" y1="150" x2="320" y2="110"/>
    <line x1="180" y1="150" x2="140" y2="270"/>
    <line x1="140" y1="270" x2="270" y2="310"/>
  </g>
  <g fill="#3a3d44">
    <circle cx="70" cy="90" r="5"/>
    <circle cx="320" cy="110" r="4"/>
    <circle cx="140" cy="270" r="4.5"/>
    <circle cx="270" cy="310" r="5"/>
  </g>
  <circle cx="180" cy="150" r="7" fill="#17181c"/>

  <!-- stacked "window" cards suggesting apps being built -->
  <g transform="rotate(-8 150 235)">
    <rect x="60" y="185" width="180" height="120" rx="14" fill="#ffffff" stroke="#e2e8f0" stroke-width="1.5"/>
    <rect x="60" y="185" width="180" height="26" rx="14" fill="#f1f5f9"/>
    <circle cx="76" cy="198" r="4" fill="#ef4444"/>
    <circle cx="90" cy="198" r="4" fill="#f59e0b"/>
    <circle cx="104" cy="198" r="4" fill="#22c55e"/>
    <rect x="76" y="228" width="130" height="9" rx="4" fill="#e2e8f0"/>
    <rect x="76" y="248" width="90" height="9" rx="4" fill="#e2e8f0"/>
    <rect x="76" y="268" width="110" height="9" rx="4" fill="#e2e8f0"/>
  </g>

  <g transform="rotate(6 250 220)">
    <rect x="170" y="150" width="170" height="110" rx="14" fill="url(#card1)"/>
    <rect x="188" y="176" width="120" height="10" rx="5" fill="#ffffff" opacity="0.85"/>
    <rect x="188" y="198" width="90" height="10" rx="5" fill="#ffffff" opacity="0.55"/>
    <rect x="188" y="222" width="60" height="22" rx="11" fill="#ffffff" opacity="0.95"/>
  </g>

  <!-- signature monogram -->
  <text x="335" y="365" font-family="'Plus Jakarta Sans', Arial" font-size="26" font-weight="800" fill="#17181c" text-anchor="end">PC.</text>
</svg>
