<svg xmlns="http://www.w3.org/2000/svg" viewBox="0 0 800 500">
  <rect width="800" height="500" fill="#0b1220"/>
  <!-- browser chrome -->
  <rect x="0" y="0" width="800" height="36" fill="#151f30"/>
  <circle cx="20" cy="18" r="5" fill="#ef4444"/>
  <circle cx="38" cy="18" r="5" fill="#f59e0b"/>
  <circle cx="56" cy="18" r="5" fill="#22c55e"/>
  <rect x="90" y="9" width="320" height="18" rx="9" fill="#0b1220"/>
  <text x="100" y="22" font-family="Arial" font-size="11" fill="#64748b">lcamedia.duckdns.org/church-media/</text>

  <!-- header -->
  <text x="40" y="70" font-family="Arial" font-size="18" fill="#e7ecf3" font-weight="bold">Church Media Diagnostic Suite</text>
  <rect x="600" y="52" width="160" height="26" rx="13" fill="#151f30" stroke="#334155"/>
  <circle cx="618" cy="65" r="5" fill="#22c55e"/>
  <text x="632" y="69" font-family="Arial" font-size="10" fill="#cbd5e1">VB-Audio Cable connected</text>

  <!-- spectrum analyzer -->
  <rect x="40" y="96" width="720" height="200" rx="10" fill="#151f30" stroke="#24354d"/>
  <text x="58" y="120" font-family="Arial" font-size="11" fill="#8ca0b3">FREQUENCY SPECTRUM</text>
  <g fill="#4f46e5">
    <rect x="60" y="220" width="14" height="50" opacity="0.9"/>
    <rect x="80" y="180" width="14" height="90" opacity="0.9"/>
    <rect x="100" y="150" width="14" height="120" opacity="0.9"/>
    <rect x="120" y="200" width="14" height="70" opacity="0.9"/>
    <rect x="140" y="130" width="14" height="140" opacity="0.9"/>
    <rect x="160" y="160" width="14" height="110" opacity="0.9"/>
    <rect x="180" y="190" width="14" height="80" opacity="0.9"/>
    <rect x="200" y="140" width="14" height="130" opacity="0.9"/>
    <rect x="220" y="170" width="14" height="100" opacity="0.9"/>
    <rect x="240" y="210" width="14" height="60" opacity="0.9"/>
    <rect x="260" y="150" width="14" height="120" opacity="0.9"/>
    <rect x="280" y="185" width="14" height="85" opacity="0.9"/>
    <rect x="300" y="145" width="14" height="125" opacity="0.9"/>
    <rect x="320" y="205" width="14" height="65" opacity="0.9"/>
    <rect x="340" y="165" width="14" height="105" opacity="0.9"/>
    <rect x="360" y="135" width="14" height="135" opacity="0.9"/>
    <rect x="380" y="195" width="14" height="75" opacity="0.9"/>
    <rect x="400" y="155" width="14" height="115" opacity="0.9"/>
    <rect x="420" y="175" width="14" height="95" opacity="0.9"/>
    <rect x="440" y="215" width="14" height="55" opacity="0.9"/>
    <rect x="460" y="160" width="14" height="110" opacity="0.9"/>
    <rect x="480" y="140" width="14" height="130" opacity="0.9"/>
    <rect x="500" y="190" width="14" height="80" opacity="0.9"/>
    <rect x="520" y="150" width="14" height="120" opacity="0.9"/>
    <rect x="540" y="200" width="14" height="70" opacity="0.9"/>
    <rect x="560" y="170" width="14" height="100" opacity="0.9"/>
    <rect x="580" y="145" width="14" height="125" opacity="0.9"/>
    <rect x="600" y="210" width="14" height="60" opacity="0.9"/>
    <rect x="620" y="180" width="14" height="90" opacity="0.9"/>
    <rect x="640" y="155" width="14" height="115" opacity="0.9"/>
    <rect x="660" y="195" width="14" height="75" opacity="0.9"/>
    <rect x="680" y="165" width="14" height="105" opacity="0.9"/>
    <rect x="700" y="185" width="14" height="85" opacity="0.9"/>
    <rect x="720" y="150" width="14" height="120" opacity="0.9"/>
  </g>

  <!-- meters -->
  <rect x="40" y="310" width="345" height="150" rx="10" fill="#151f30" stroke="#24354d"/>
  <text x="58" y="335" font-family="Arial" font-size="11" fill="#8ca0b3">LUFS (INTEGRATED)</text>
  <rect x="58" y="350" width="309" height="18" rx="9" fill="#1e293b"/>
  <rect x="58" y="350" width="220" height="18" rx="9" fill="#3fbf8f"/>
  <text x="58" y="395" font-family="Arial" font-size="22" fill="#e7ecf3" font-weight="bold">-16.2 LUFS</text>
  <text x="58" y="418" font-family="Arial" font-size="10" fill="#64748b">Target: -16 LUFS · within range</text>

  <rect x="405" y="310" width="355" height="150" rx="10" fill="#151f30" stroke="#24354d"/>
  <text x="423" y="335" font-family="Arial" font-size="11" fill="#8ca0b3">PEAK / NOISE FLOOR</text>
  <rect x="423" y="350" width="319" height="18" rx="9" fill="#1e293b"/>
  <rect x="423" y="350" width="270" height="18" rx="9" fill="#e2984a"/>
  <text x="423" y="395" font-family="Arial" font-size="22" fill="#e7ecf3" font-weight="bold">-3.4 dB peak</text>
  <text x="423" y="418" font-family="Arial" font-size="10" fill="#64748b">Noise floor: -58 dB</text>
</svg>
