<svg xmlns="http://www.w3.org/2000/svg" viewBox="0 0 800 500">
  <rect width="800" height="500" fill="#f8fafc"/>
  <!-- browser chrome -->
  <rect x="0" y="0" width="800" height="36" fill="#ffffff"/>
  <rect x="0" y="35" width="800" height="1" fill="#e2e8f0"/>
  <circle cx="20" cy="18" r="5" fill="#ef4444"/>
  <circle cx="38" cy="18" r="5" fill="#f59e0b"/>
  <circle cx="56" cy="18" r="5" fill="#22c55e"/>
  <rect x="90" y="9" width="220" height="18" rx="9" fill="#f1f5f9"/>
  <text x="100" y="22" font-family="Arial" font-size="11" fill="#64748b">lca-accra.com</text>

  <!-- nav -->
  <rect x="0" y="36" width="800" height="56" fill="#ffffff"/>
  <text x="40" y="70" font-family="Arial" font-size="17" fill="#0f172a" font-weight="bold">LCA Accra</text>
  <rect x="470" y="58" width="55" height="10" rx="3" fill="#cbd5e1"/>
  <rect x="540" y="58" width="55" height="10" rx="3" fill="#cbd5e1"/>
  <rect x="610" y="58" width="55" height="10" rx="3" fill="#cbd5e1"/>
  <rect x="690" y="55" width="70" height="26" rx="13" fill="#4f46e5"/>
  <text x="705" y="72" font-family="Arial" font-size="10" fill="#ffffff" font-weight="bold">GIVE</text>

  <!-- hero band -->
  <rect x="0" y="92" width="800" height="150" fill="#4338ca"/>
  <text x="40" y="150" font-family="Arial" font-size="24" fill="#ffffff" font-weight="bold">Join us this Sunday</text>
  <text x="40" y="176" font-family="Arial" font-size="13" fill="#e0e7ff">Sermon library, youth ministry, and member portal — all in one place</text>
  <rect x="40" y="195" width="140" height="30" rx="6" fill="#ffffff"/>
  <text x="60" y="215" font-family="Arial" font-size="12" fill="#4338ca" font-weight="bold">WATCH LIVE</text>

  <!-- sermon grid -->
  <text x="40" y="270" font-family="Arial" font-size="13" fill="#64748b" font-weight="bold">RECENT SERMONS</text>
  <g>
    <rect x="40" y="285" width="170" height="125" rx="8" fill="#ffffff" stroke="#e2e8f0"/>
    <rect x="52" y="297" width="146" height="78" rx="6" fill="#e0e7ff"/>
    <polygon points="115,320 115,354 145,337" fill="#4f46e5"/>
    <rect x="52" y="386" width="120" height="8" rx="3" fill="#334155"/>
    <rect x="52" y="400" width="70" height="7" rx="3" fill="#94a3b8"/>
  </g>
  <g>
    <rect x="225" y="285" width="170" height="125" rx="8" fill="#ffffff" stroke="#e2e8f0"/>
    <rect x="237" y="297" width="146" height="78" rx="6" fill="#e0e7ff"/>
    <polygon points="300,320 300,354 330,337" fill="#4f46e5"/>
    <rect x="237" y="386" width="120" height="8" rx="3" fill="#334155"/>
    <rect x="237" y="400" width="70" height="7" rx="3" fill="#94a3b8"/>
  </g>
  <g>
    <rect x="410" y="285" width="170" height="125" rx="8" fill="#ffffff" stroke="#e2e8f0"/>
    <rect x="422" y="297" width="146" height="78" rx="6" fill="#e0e7ff"/>
    <polygon points="485,320 485,354 515,337" fill="#4f46e5"/>
    <rect x="422" y="386" width="120" height="8" rx="3" fill="#334155"/>
    <rect x="422" y="400" width="70" height="7" rx="3" fill="#94a3b8"/>
  </g>
  <g>
    <rect x="595" y="285" width="165" height="125" rx="8" fill="#ffffff" stroke="#e2e8f0"/>
    <rect x="607" y="297" width="141" height="78" rx="6" fill="#e0e7ff"/>
    <polygon points="665,320 665,354 693,337" fill="#4f46e5"/>
    <rect x="607" y="386" width="120" height="8" rx="3" fill="#334155"/>
    <rect x="607" y="400" width="70" height="7" rx="3" fill="#94a3b8"/>
  </g>

  <rect x="0" y="440" width="800" height="60" fill="#0f172a"/>
  <text x="40" y="475" font-family="Arial" font-size="11" fill="#94a3b8">Sermon media served from Backblaze B2 + Cloudflare CDN</text>
</svg>
