<svg xmlns="http://www.w3.org/2000/svg" viewBox="0 0 800 500">
  <rect width="800" height="500" fill="#0b1220"/>
  <!-- browser chrome -->
  <rect x="0" y="0" width="800" height="36" fill="#151f30"/>
  <circle cx="20" cy="18" r="5" fill="#ef4444"/>
  <circle cx="38" cy="18" r="5" fill="#f59e0b"/>
  <circle cx="56" cy="18" r="5" fill="#22c55e"/>
  <rect x="90" y="9" width="260" height="18" rx="9" fill="#0b1220"/>
  <text x="100" y="22" font-family="Arial" font-size="11" fill="#64748b">ledger-command.duckdns.org</text>

  <!-- sidebar -->
  <rect x="0" y="36" width="160" height="464" fill="#111a2e"/>
  <circle cx="30" cy="66" r="10" fill="#4f46e5"/>
  <rect x="50" y="60" width="90" height="12" rx="4" fill="#334155"/>
  <rect x="20" y="110" width="120" height="10" rx="4" fill="#4f46e5" opacity="0.9"/>
  <rect x="20" y="140" width="120" height="10" rx="4" fill="#334155"/>
  <rect x="20" y="170" width="120" height="10" rx="4" fill="#334155"/>
  <rect x="20" y="200" width="120" height="10" rx="4" fill="#334155"/>

  <!-- smart inbox header -->
  <rect x="185" y="60" width="570" height="46" rx="10" fill="#151f30" stroke="#24354d"/>
  <text x="205" y="88" font-family="Arial" font-size="13" fill="#e7ecf3" font-weight="bold">Smart Inbox</text>
  <rect x="620" y="70" width="120" height="24" rx="12" fill="#4f46e5" opacity="0.9"/>
  <text x="635" y="86" font-family="Arial" font-size="10" fill="#ffffff">3 AI suggestions</text>

  <!-- inbox list -->
  <rect x="185" y="122" width="570" height="353" rx="10" fill="#151f30" stroke="#24354d"/>

  <rect x="205" y="140" width="530" height="76" rx="8" fill="#1e293b"/>
  <circle cx="228" cy="168" r="14" fill="#4f46e5" opacity="0.6"/>
  <text x="252" y="163" font-family="Arial" font-size="11" fill="#e7ecf3" font-weight="bold">Acme Retail — unmatched transaction</text>
  <text x="252" y="180" font-family="Arial" font-size="10" fill="#8ca0b3">Gmail thread synced · 2 messages</text>
  <rect x="252" y="190" width="150" height="16" rx="8" fill="#3fbf8f" opacity="0.18"/>
  <text x="260" y="202" font-family="Arial" font-size="9" fill="#3fbf8f">AI suggests: match #4471</text>

  <rect x="205" y="226" width="530" height="76" rx="8" fill="#1e293b"/>
  <circle cx="228" cy="254" r="14" fill="#e2984a" opacity="0.6"/>
  <text x="252" y="249" font-family="Arial" font-size="11" fill="#e7ecf3" font-weight="bold">Kofi &amp; Sons — monthly reconciliation</text>
  <text x="252" y="266" font-family="Arial" font-size="10" fill="#8ca0b3">Awaiting officer approval</text>
  <rect x="252" y="276" width="170" height="16" rx="8" fill="#e2984a" opacity="0.18"/>
  <text x="260" y="288" font-family="Arial" font-size="9" fill="#e2984a">AI drafted client report</text>

  <rect x="205" y="312" width="530" height="76" rx="8" fill="#1e293b"/>
  <circle cx="228" cy="340" r="14" fill="#4f46e5" opacity="0.6"/>
  <text x="252" y="335" font-family="Arial" font-size="11" fill="#e7ecf3" font-weight="bold">Nyame Ventures — new invoice</text>
  <text x="252" y="352" font-family="Arial" font-size="10" fill="#8ca0b3">Gmail: reply sent by officer</text>
  <rect x="252" y="362" width="130" height="16" rx="8" fill="#3fbf8f" opacity="0.18"/>
  <text x="260" y="374" font-family="Arial" font-size="9" fill="#3fbf8f">Resolved</text>

  <rect x="205" y="398" width="530" height="60" rx="8" fill="#1e293b" opacity="0.6"/>
  <text x="228" y="432" font-family="Arial" font-size="10" fill="#64748b">Role-scoped: officer sees only assigned clients</text>
</svg>
