<svg xmlns="http://www.w3.org/2000/svg" viewBox="0 0 800 500">
  <rect width="800" height="500" fill="#0b1220"/>
  <!-- browser chrome -->
  <rect x="0" y="0" width="800" height="36" fill="#151f30"/>
  <circle cx="20" cy="18" r="5" fill="#ef4444"/>
  <circle cx="38" cy="18" r="5" fill="#f59e0b"/>
  <circle cx="56" cy="18" r="5" fill="#22c55e"/>
  <rect x="90" y="9" width="240" height="18" rx="9" fill="#0b1220"/>
  <text x="100" y="22" font-family="Arial" font-size="11" fill="#64748b">ledger.princecaleb.dev</text>

  <!-- sidebar -->
  <rect x="0" y="36" width="160" height="464" fill="#111a2e"/>
  <circle cx="30" cy="66" r="10" fill="#4f46e5"/>
  <rect x="50" y="60" width="90" height="12" rx="4" fill="#334155"/>
  <rect x="20" y="110" width="120" height="10" rx="4" fill="#4f46e5" opacity="0.9"/>
  <rect x="20" y="140" width="120" height="10" rx="4" fill="#334155"/>
  <rect x="20" y="170" width="120" height="10" rx="4" fill="#334155"/>
  <rect x="20" y="200" width="120" height="10" rx="4" fill="#334155"/>

  <!-- top stats row -->
  <rect x="185" y="60" width="180" height="90" rx="10" fill="#151f30" stroke="#24354d"/>
  <text x="205" y="90" font-family="Arial" font-size="12" fill="#8ca0b3">TOTAL REVENUE</text>
  <text x="205" y="118" font-family="Arial" font-size="22" fill="#e7ecf3" font-weight="bold">$128,430</text>

  <rect x="380" y="60" width="180" height="90" rx="10" fill="#151f30" stroke="#24354d"/>
  <text x="400" y="90" font-family="Arial" font-size="12" fill="#8ca0b3">OUTSTANDING</text>
  <text x="400" y="118" font-family="Arial" font-size="22" fill="#e2984a" font-weight="bold">$12,900</text>

  <rect x="575" y="60" width="180" height="90" rx="10" fill="#151f30" stroke="#24354d"/>
  <text x="595" y="90" font-family="Arial" font-size="12" fill="#8ca0b3">ACTIVE CLIENTS</text>
  <text x="595" y="118" font-family="Arial" font-size="22" fill="#3fbf8f" font-weight="bold">47</text>

  <!-- chart panel -->
  <rect x="185" y="170" width="570" height="180" rx="10" fill="#151f30" stroke="#24354d"/>
  <polyline points="205,300 250,260 300,280 350,230 400,250 450,200 500,220 550,180 600,210 650,170 700,190 730,160"
    fill="none" stroke="#4f46e5" stroke-width="3"/>
  <polyline points="205,300 250,260 300,280 350,230 400,250 450,200 500,220 550,180 600,210 650,170 700,190 730,160 730,340 205,340"
    fill="#4f46e5" opacity="0.08" stroke="none"/>

  <!-- table -->
  <rect x="185" y="365" width="570" height="110" rx="10" fill="#151f30" stroke="#24354d"/>
  <rect x="205" y="385" width="530" height="1" fill="#24354d"/>
  <rect x="205" y="415" width="530" height="1" fill="#24354d"/>
  <rect x="205" y="445" width="530" height="1" fill="#24354d"/>
  <circle cx="215" cy="400" r="4" fill="#3fbf8f"/>
  <circle cx="215" cy="430" r="4" fill="#e2984a"/>
  <circle cx="215" cy="460" r="4" fill="#3fbf8f"/>
  <rect x="230" y="394" width="160" height="10" rx="3" fill="#334155"/>
  <rect x="230" y="424" width="160" height="10" rx="3" fill="#334155"/>
  <rect x="230" y="454" width="160" height="10" rx="3" fill="#334155"/>
</svg>
