<svg xmlns="http://www.w3.org/2000/svg" viewBox="0 0 800 500">
  <rect width="800" height="500" fill="#0b1220"/>
  <!-- browser chrome -->
  <rect x="0" y="0" width="800" height="36" fill="#151f30"/>
  <circle cx="20" cy="18" r="5" fill="#ef4444"/>
  <circle cx="38" cy="18" r="5" fill="#f59e0b"/>
  <circle cx="56" cy="18" r="5" fill="#22c55e"/>
  <rect x="90" y="9" width="240" height="18" rx="9" fill="#0b1220"/>
  <text x="100" y="22" font-family="Arial" font-size="11" fill="#64748b">videowatch.duckdns.org</text>

  <!-- sidebar -->
  <rect x="0" y="36" width="160" height="464" fill="#111a2e"/>
  <circle cx="30" cy="66" r="10" fill="#4f46e5"/>
  <rect x="50" y="60" width="90" height="12" rx="4" fill="#334155"/>
  <rect x="20" y="110" width="120" height="10" rx="4" fill="#4f46e5" opacity="0.9"/>
  <rect x="20" y="140" width="120" height="10" rx="4" fill="#334155"/>
  <rect x="20" y="170" width="120" height="10" rx="4" fill="#334155"/>
  <rect x="20" y="200" width="120" height="10" rx="4" fill="#334155"/>

  <!-- live scan banner -->
  <rect x="185" y="60" width="570" height="46" rx="10" fill="#151f30" stroke="#24354d"/>
  <circle cx="205" cy="83" r="5" fill="#22c55e"/>
  <text x="222" y="88" font-family="Arial" font-size="13" fill="#e7ecf3" font-weight="bold">Live scan in progress — 3 sources</text>
  <text x="600" y="88" font-family="Arial" font-size="11" fill="#64748b">SSE feed</text>

  <!-- video result cards -->
  <g>
    <rect x="185" y="122" width="178" height="130" rx="8" fill="#151f30" stroke="#24354d"/>
    <rect x="197" y="134" width="154" height="86" rx="6" fill="#1e293b"/>
    <polygon points="264,160 264,190 288,175" fill="#4f46e5"/>
    <rect x="197" y="230" width="120" height="8" rx="3" fill="#8ca0b3"/>
    <rect x="197" y="242" width="60" height="7" rx="3" fill="#334155"/>
  </g>
  <g>
    <rect x="375" y="122" width="178" height="130" rx="8" fill="#151f30" stroke="#24354d"/>
    <rect x="387" y="134" width="154" height="86" rx="6" fill="#1e293b"/>
    <polygon points="454,160 454,190 478,175" fill="#4f46e5"/>
    <rect x="387" y="230" width="120" height="8" rx="3" fill="#8ca0b3"/>
    <rect x="387" y="242" width="60" height="7" rx="3" fill="#334155"/>
  </g>
  <g>
    <rect x="565" y="122" width="190" height="130" rx="8" fill="#151f30" stroke="#24354d"/>
    <rect x="577" y="134" width="166" height="86" rx="6" fill="#1e293b"/>
    <polygon points="650,160 650,190 674,175" fill="#4f46e5"/>
    <rect x="577" y="230" width="120" height="8" rx="3" fill="#8ca0b3"/>
    <rect x="577" y="242" width="60" height="7" rx="3" fill="#334155"/>
  </g>

  <!-- source table -->
  <rect x="185" y="270" width="570" height="205" rx="10" fill="#151f30" stroke="#24354d"/>
  <text x="205" y="298" font-family="Arial" font-size="12" fill="#8ca0b3">TRACKED SOURCES</text>
  <rect x="205" y="315" width="530" height="1" fill="#24354d"/>
  <rect x="205" y="355" width="530" height="1" fill="#24354d"/>
  <rect x="205" y="395" width="530" height="1" fill="#24354d"/>
  <rect x="205" y="435" width="530" height="1" fill="#24354d"/>
  <circle cx="215" cy="335" r="4" fill="#22c55e"/>
  <text x="230" y="339" font-family="Arial" font-size="11" fill="#cbd5e1">YouTube — @channelname</text>
  <text x="650" y="339" font-family="Arial" font-size="10" fill="#64748b">yt-dlp</text>
  <circle cx="215" cy="375" r="4" fill="#22c55e"/>
  <text x="230" y="379" font-family="Arial" font-size="11" fill="#cbd5e1">VK Video — group feed</text>
  <text x="650" y="379" font-family="Arial" font-size="10" fill="#64748b">playwright</text>
  <circle cx="215" cy="415" r="4" fill="#e2984a"/>
  <text x="230" y="419" font-family="Arial" font-size="11" fill="#cbd5e1">Custom site — scheduled scan</text>
  <text x="650" y="419" font-family="Arial" font-size="10" fill="#64748b">queued</text>
  <circle cx="215" cy="455" r="4" fill="#22c55e"/>
  <text x="230" y="459" font-family="Arial" font-size="11" fill="#cbd5e1">YouTube — @secondchannel</text>
  <text x="650" y="459" font-family="Arial" font-size="10" fill="#64748b">yt-dlp</text>
</svg>
