<svg xmlns="http://www.w3.org/2000/svg" viewBox="0 0 600 400">
  <defs>
    <linearGradient id="bg" x1="0" y1="0" x2="1" y2="1">
      <stop offset="0" stop-color="#06b6d4" stop-opacity="0.12"/>
      <stop offset="1" stop-color="#ffffff"/>
    </linearGradient>
  </defs>
  <rect width="600" height="400" fill="url(#bg)"/>
  <rect x="150" y="96" width="250" height="132" rx="26" fill="#06b6d4" opacity="0.9"/>
  <path d="M 224 228 L 202 270 L 272 228 Z" fill="#06b6d4" opacity="0.9"/>
  <path d="M 210 162 L 210 162 M 205 148 L 205 176 M 225 138 L 225 186 M 245 128 L 245 196 M 265 138 L 265 186 M 285 148 L 285 176 M 305 156 L 305 168" stroke="white" stroke-width="8" stroke-linecap="round" opacity="0.95"/>
  <path d="M 400 150 C 428 150, 428 190, 400 190" stroke="#0e7490" stroke-width="6" fill="none" opacity="0.5"/>
  <path d="M 420 128 C 470 128, 470 212, 420 212" stroke="#0e7490" stroke-width="6" fill="none" opacity="0.32"/>
  <circle cx="132" cy="300" r="40" fill="#0e7490" opacity="0.92"/>
  <path d="M 118 286 c 4 -6, 12 -6, 16 2 c 3 6, 1 10, -3 13 c 6 9, 13 16, 22 22 c 3 -4, 7 -6, 13 -3 c 8 4, 8 12, 2 16 c -18 8, -46 -18, -52 -40 c -2 -8, -2 -20, 2 -22 Z" fill="white"/>
  <rect x="196" y="278" width="230" height="14" rx="7" fill="#0e7490" opacity="0.28"/>
  <rect x="196" y="304" width="170" height="14" rx="7" fill="#0e7490" opacity="0.22"/>
  <rect x="24" y="336" width="124" height="34" rx="17" fill="#0e7490" opacity="0.92"/>
  <text x="41" y="358" font-family="Arial, sans-serif" font-size="16" font-weight="700" fill="white">Technology</text>
  <text x="24" y="46" font-family="Arial, sans-serif" font-size="15" font-weight="700" fill="#0e7490" opacity="0.55" letter-spacing="1">AI &amp; Chatbots</text>
</svg>
