<svg xmlns="http://www.w3.org/2000/svg" viewBox="0 0 600 400">
  <defs>
    <linearGradient id="bg" x1="0" y1="0" x2="1" y2="1">
      <stop offset="0" stop-color="#06b6d4" stop-opacity="0.12"/>
      <stop offset="1" stop-color="#ffffff"/>
    </linearGradient>
  </defs>
  <rect width="600" height="400" fill="url(#bg)"/>
  <rect x="116" y="105" width="230" height="126" rx="24" fill="#06b6d4" opacity="0.9"/>
  <path d="M 196 231 L 174 274 L 244 231 Z" fill="#06b6d4" opacity="0.9"/>
  <circle cx="180" cy="168" r="9" fill="white"/>
  <circle cx="230" cy="168" r="9" fill="white"/>
  <circle cx="280" cy="168" r="9" fill="white"/>
  <rect x="344" y="74" width="148" height="82" rx="18" fill="white" stroke="#0e7490" stroke-width="4" opacity="0.96"/>
  <path d="M 405 156 L 388 185 L 436 156 Z" fill="white" stroke="#0e7490" stroke-width="4"/>
  <rect x="367" y="101" width="82" height="9" rx="4" fill="#0e7490" opacity="0.42"/>
  <rect x="367" y="119" width="58" height="9" rx="4" fill="#0e7490" opacity="0.42"/>
  <path d="M 196 278 C 260 328, 360 329, 426 275" stroke="#0e7490" stroke-width="5" fill="none" stroke-dasharray="9 10" opacity="0.42"/>
  <circle cx="168" cy="301" r="28" fill="white" stroke="#0e7490" stroke-width="4"/>
  <circle cx="432" cy="302" r="28" fill="white" stroke="#0e7490" stroke-width="4"/>
  <text x="158" y="309" font-family="Arial, sans-serif" font-size="18" font-weight="700" fill="#0e7490">G</text>
  <text x="423" y="309" font-family="Arial, sans-serif" font-size="18" font-weight="700" fill="#0e7490">S</text>
  <rect x="24" y="336" width="124" height="34" rx="17" fill="#0e7490" opacity="0.92"/>
  <text x="41" y="358" font-family="Arial, sans-serif" font-size="16" font-weight="700" fill="white">Technology</text>
  <text x="24" y="46" font-family="Arial, sans-serif" font-size="15" font-weight="700" fill="#0e7490" opacity="0.55" letter-spacing="1">AI &amp; Chatbots</text>
</svg>
