<svg xmlns="http://www.w3.org/2000/svg" viewBox="0 0 600 400">
  <defs>
    <linearGradient id="bg" x1="0" y1="0" x2="1" y2="1">
      <stop offset="0" stop-color="#8b5cf6" stop-opacity="0.10"/>
      <stop offset="1" stop-color="#ffffff"/>
    </linearGradient>
  </defs>
  <rect width="600" height="400" fill="url(#bg)"/>
  <rect x="130" y="90" width="340" height="220" rx="14" fill="white" stroke="#6d28d9" stroke-width="4" opacity="0.95"/>
<rect x="130" y="90" width="340" height="34" rx="14" fill="#8b5cf6" opacity="0.85"/>
<circle cx="150" cy="107" r="5" fill="white"/>
<circle cx="168" cy="107" r="5" fill="white"/>
<circle cx="186" cy="107" r="5" fill="white"/>
<rect x="152" y="150" width="130" height="14" rx="4" fill="#8b5cf6" opacity="0.7"/>
<rect x="152" y="176" width="220" height="10" rx="4" fill="#6d28d9" opacity="0.3"/>
<rect x="152" y="196" width="180" height="10" rx="4" fill="#6d28d9" opacity="0.3"/>
<rect x="152" y="224" width="90" height="60" rx="8" fill="#6d28d9" opacity="0.18"/>
<rect x="256" y="224" width="90" height="60" rx="8" fill="#8b5cf6" opacity="0.25"/>
<rect x="360" y="224" width="90" height="60" rx="8" fill="#6d28d9" opacity="0.18"/>
  <rect x="24" y="336" width="88" height="34" rx="17" fill="#6d28d9" opacity="0.92"/>
  <text x="41" y="358" font-family="Arial, sans-serif" font-size="16" font-weight="700" fill="white">Retail</text>
  <text x="24" y="46" font-family="Arial, sans-serif" font-size="15" font-weight="700" fill="#6d28d9" opacity="0.55" letter-spacing="1">CMS &amp; Websites</text>
</svg>