<svg xmlns="http://www.w3.org/2000/svg" viewBox="0 0 600 400">
  <defs>
    <linearGradient id="bg" x1="0" y1="0" x2="1" y2="1">
      <stop offset="0" stop-color="#06b6d4" stop-opacity="0.12"/>
      <stop offset="1" stop-color="#ffffff"/>
    </linearGradient>
  </defs>
  <rect width="600" height="400" fill="url(#bg)"/>
  <rect x="185" y="72" width="230" height="120" rx="24" fill="#06b6d4" opacity="0.9"/>
  <path d="M 255 192 L 235 230 L 295 192 Z" fill="#06b6d4" opacity="0.9"/>
  <circle cx="250" cy="130" r="9" fill="white"/>
  <circle cx="300" cy="130" r="9" fill="white"/>
  <circle cx="350" cy="130" r="9" fill="white"/>
  <path d="M 158 262 C 200 236, 260 226, 300 248" stroke="#0e7490" stroke-width="4" fill="none" stroke-dasharray="8 9" opacity="0.4"/>
  <circle cx="128" cy="290" r="34" fill="#0e7490" opacity="0.92"/>
  <text x="118" y="299" font-family="Arial, sans-serif" font-size="22" font-weight="700" fill="white">1</text>
  <path d="M 172 290 L 254 290" stroke="#0e7490" stroke-width="4" stroke-dasharray="8 9" opacity="0.45"/>
  <path d="M 254 290 L 243 282 M 254 290 L 243 298" stroke="#0e7490" stroke-width="4" fill="none" opacity="0.45"/>
  <circle cx="300" cy="290" r="34" fill="white" stroke="#0e7490" stroke-width="4" opacity="0.96"/>
  <text x="290" y="299" font-family="Arial, sans-serif" font-size="22" font-weight="700" fill="#0e7490">2</text>
  <path d="M 344 290 L 426 290" stroke="#0e7490" stroke-width="4" stroke-dasharray="8 9" opacity="0.45"/>
  <path d="M 426 290 L 415 282 M 426 290 L 415 298" stroke="#0e7490" stroke-width="4" fill="none" opacity="0.45"/>
  <circle cx="472" cy="290" r="34" fill="white" stroke="#0e7490" stroke-width="4" opacity="0.96"/>
  <text x="462" y="299" font-family="Arial, sans-serif" font-size="22" font-weight="700" fill="#0e7490">3</text>
  <rect x="24" y="336" width="124" height="34" rx="17" fill="#0e7490" opacity="0.92"/>
  <text x="41" y="358" font-family="Arial, sans-serif" font-size="16" font-weight="700" fill="white">Technology</text>
  <text x="24" y="46" font-family="Arial, sans-serif" font-size="15" font-weight="700" fill="#0e7490" opacity="0.55" letter-spacing="1">AI &amp; Chatbots</text>
</svg>
